<?xml version="1.0" standalone="no"?>
<!DOCTYPE svg PUBLIC "-//W3C//DTD SVG 20010904//EN"
 "http://www.w3.org/TR/2001/REC-SVG-20010904/DTD/svg10.dtd">
<svg version="1.0" xmlns="http://www.w3.org/2000/svg"
 width="988.000000pt" height="988.000000pt" viewBox="0 0 988.000000 988.000000"
 preserveAspectRatio="xMidYMid meet">
<metadata>
Created by potrace 1.14, written by Peter Selinger 2001-2017
</metadata>
<g transform="translate(0.000000,988.000000) scale(0.100000,-0.100000)"
fill="#000000" stroke="none">
<path d="M4808 9495 c-4 -4 -169 -11 -443 -19 -110 -4 -213 -8 -230 -11 -16
-2 -82 -6 -145 -9 -63 -4 -126 -8 -140 -11 -27 -6 -61 -9 -205 -20 -49 -4
-101 -9 -115 -11 -14 -3 -44 -7 -67 -9 -23 -2 -65 -7 -95 -11 -29 -3 -66 -8
-83 -10 -29 -3 -67 -9 -110 -18 -11 -3 -47 -8 -80 -11 -33 -4 -80 -11 -105
-17 -25 -5 -63 -12 -85 -14 -74 -8 -180 -23 -230 -34 -27 -6 -68 -13 -90 -16
-22 -3 -47 -8 -55 -11 -17 -7 -26 -9 -90 -19 -25 -4 -49 -9 -55 -10 -5 -2 -23
-6 -40 -9 -16 -3 -37 -8 -45 -11 -8 -3 -33 -8 -55 -10 -22 -3 -78 -14 -125
-26 -47 -11 -96 -22 -110 -24 -14 -3 -38 -9 -55 -14 -16 -5 -44 -12 -61 -15
-36 -6 -265 -65 -274 -70 -4 -2 -22 -7 -41 -10 -19 -3 -42 -8 -51 -11 -9 -3
-25 -7 -35 -9 -10 -2 -49 -13 -88 -25 -38 -11 -80 -22 -93 -24 -12 -3 -30 -7
-40 -10 -17 -6 -17 -106 -16 -2123 0 -1165 4 -2147 9 -2183 4 -36 8 -76 10
-90 1 -14 5 -38 8 -55 4 -16 8 -46 11 -65 3 -19 12 -69 21 -110 9 -41 18 -84
20 -95 2 -11 9 -38 15 -60 24 -87 31 -111 34 -125 22 -88 146 -411 168 -437 6
-7 8 -13 4 -13 -3 0 29 -66 71 -148 42 -81 81 -157 87 -169 6 -13 14 -23 19
-23 4 0 7 -5 7 -10 0 -25 275 -441 314 -475 6 -5 19 -22 29 -37 70 -110 292
-362 532 -603 188 -189 431 -414 473 -439 9 -5 26 -19 38 -30 42 -41 94 -86
99 -86 3 0 16 -10 29 -23 12 -12 36 -32 52 -44 16 -12 40 -31 54 -42 117 -94
297 -229 475 -356 50 -36 95 -68 100 -73 11 -9 357 -241 383 -257 160 -99 262
-162 278 -172 72 -46 163 -103 229 -142 67 -41 111 -34 240 34 152 80 439 241
503 282 29 18 55 33 57 33 3 0 29 15 58 33 28 19 95 60 147 92 106 66 292 186
300 195 3 3 50 35 105 72 94 62 368 263 444 325 74 60 286 237 291 242 3 3 45
42 95 86 163 146 385 374 554 570 122 141 302 390 402 555 39 63 74 122 80
130 27 45 180 355 202 410 14 36 31 79 38 95 7 17 13 35 15 40 2 6 22 64 44
130 23 66 43 127 45 135 2 8 11 41 20 73 9 33 18 69 20 80 2 12 8 45 15 72 6
28 15 73 20 100 5 28 11 61 14 75 2 14 7 47 11 73 4 27 8 59 11 70 13 65 15
394 16 2307 0 1152 -1 2112 -1 2133 -1 21 -7 39 -13 41 -7 2 -38 11 -68 20
-30 9 -66 18 -80 21 -14 3 -36 9 -50 14 -14 5 -56 17 -95 26 -38 9 -90 22
-115 30 -25 8 -119 32 -210 54 -228 55 -260 62 -300 68 -19 2 -60 11 -90 18
-58 15 -93 22 -150 31 -19 3 -48 9 -65 14 -16 5 -48 11 -69 15 -21 3 -48 7
-60 10 -55 12 -176 32 -251 41 -27 3 -56 7 -64 10 -8 2 -37 7 -65 10 -28 3
-54 8 -58 10 -3 2 -28 7 -55 10 -26 3 -59 7 -73 10 -14 3 -41 7 -60 8 -19 2
-61 6 -92 10 -31 5 -72 10 -90 12 -18 1 -76 8 -128 14 -178 21 -248 28 -385
35 -49 3 -119 8 -155 11 -105 11 -156 13 -535 19 -198 3 -365 7 -372 10 -6 2
-13 2 -15 0z"/>
</g>
</svg>
